<svg width="29" height="29" viewBox="0 0 29 29" fill="none" xmlns="http://www.w3.org/2000/svg">
<g clip-path="url(#clip0)">
<g clip-path="url(#clip1)">
<path d="M28.4948 14.0972C28.5025 15.7801 28.1573 17.4478 27.479 19.0046C26.8007 20.5614 25.8027 21.9766 24.5421 23.169C22.3164 25.2604 19.39 26.5602 16.2612 26.8471C13.1325 27.1341 9.995 26.3904 7.38289 24.7427C4.77078 23.095 2.84563 20.6452 1.93525 17.8105C1.02487 14.9757 1.18556 11.9313 2.38995 9.1956C3.59435 6.45993 5.76797 4.20216 8.5407 2.80676C11.3134 1.41136 14.5138 0.964614 17.5969 1.54259C20.6799 2.12057 23.455 3.68754 25.4496 5.97666C27.4442 8.26578 28.5349 11.1355 28.536 14.0972H28.4948Z" fill="white" stroke="black" stroke-miterlimit="10"/>
<path d="M14.9031 23.169C20.2209 23.169 24.5318 19.1074 24.5318 14.0972C24.5318 9.087 20.2209 5.02543 14.9031 5.02543C9.58533 5.02543 5.27441 9.087 5.27441 14.0972C5.27441 19.1074 9.58533 23.169 14.9031 23.169Z" fill="white" stroke="black" stroke-miterlimit="10"/>
<path d="M24.5422 23.169C23.2483 24.3913 21.7052 25.3543 20.006 26.0001C18.3067 26.6458 16.4863 26.9609 14.6544 26.9263C12.8224 26.8918 11.0169 26.5084 9.34634 25.7992C7.67582 25.09 6.17489 24.0696 4.9339 22.7995C5.05187 22.8383 5.16586 22.8871 5.27446 22.9454C6.24299 23.5346 7.38438 23.8205 8.53563 23.7621C9.46635 23.7701 10.3878 23.5872 11.236 23.2262C12.0842 22.8652 12.839 22.3348 13.448 21.6716C13.628 21.4169 13.8719 21.2081 14.1582 21.0636C14.4444 20.9191 14.7642 20.8435 15.0889 20.8435C15.4137 20.8435 15.7334 20.9191 16.0197 21.0636C16.3059 21.2081 16.5499 21.4169 16.7298 21.6716C17.3254 22.3497 18.0777 22.8906 18.9291 23.2529C19.7804 23.6152 20.7085 23.7894 21.6422 23.7621C22.6497 23.8362 23.658 23.63 24.5422 23.169Z" fill="#EFBE86"/>
<path d="M14.9031 18.9005C17.7188 18.9005 20.0013 16.75 20.0013 14.0972C20.0013 11.4444 17.7188 9.29393 14.9031 9.29393C12.0875 9.29393 9.80499 11.4444 9.80499 14.0972C9.80499 16.75 12.0875 18.9005 14.9031 18.9005Z" fill="white" stroke="black" stroke-miterlimit="10"/>
</g>
</g>
<defs>
<clipPath id="clip0">
<rect width="29" height="29" fill="white"/>
</clipPath>
<clipPath id="clip1">
<rect width="28.205" height="26.5833" fill="white" transform="translate(0.805847 0.805553)"/>
</clipPath>
</defs>
</svg>
