<svg width="5" height="16" viewBox="0 0 5 16" fill="none" xmlns="http://www.w3.org/2000/svg">
<g clip-path="url(#clip0)">
<path d="M2.35281 4.23529C3.39241 4.23529 4.23517 3.39253 4.23517 2.35293C4.23517 1.31334 3.39241 0.470581 2.35281 0.470581C1.31322 0.470581 0.470459 1.31334 0.470459 2.35293C0.470459 3.39253 1.31322 4.23529 2.35281 4.23529Z" fill="black" stroke="black" stroke-width="0.5" stroke-miterlimit="10"/>
<path d="M2.35281 9.88232C3.39241 9.88232 4.23517 9.03956 4.23517 7.99997C4.23517 6.96037 3.39241 6.11761 2.35281 6.11761C1.31322 6.11761 0.470459 6.96037 0.470459 7.99997C0.470459 9.03956 1.31322 9.88232 2.35281 9.88232Z" fill="black" stroke="black" stroke-width="0.5" stroke-miterlimit="10"/>
<path d="M2.35281 15.5294C3.39241 15.5294 4.23517 14.6867 4.23517 13.6471C4.23517 12.6075 3.39241 11.7647 2.35281 11.7647C1.31322 11.7647 0.470459 12.6075 0.470459 13.6471C0.470459 14.6867 1.31322 15.5294 2.35281 15.5294Z" fill="black" stroke="black" stroke-width="0.5" stroke-miterlimit="10"/>
</g>
<defs>
<clipPath id="clip0">
<rect width="4.70588" height="16" fill="white"/>
</clipPath>
</defs>
</svg>
