<svg width="32" height="24" viewBox="0 0 32 24" fill="none" xmlns="http://www.w3.org/2000/svg">
<path d="M26.64 3.60001H22.68L22.032 2.52001C21.7699 2.121 21.4142 1.79214 20.9959 1.56207C20.5776 1.332 20.1094 1.20771 19.632 1.20001H11.664C11.1854 1.20132 10.7148 1.32288 10.2954 1.55353C9.87609 1.78418 9.52141 2.11652 9.26401 2.52001L8.61601 3.60001H4.56001C3.66888 3.60001 2.81426 3.95401 2.18413 4.58413C1.55401 5.21426 1.20001 6.06888 1.20001 6.96001V19.44C1.20001 20.3311 1.55401 21.1858 2.18413 21.8159C2.81426 22.446 3.66888 22.8 4.56001 22.8H26.64C27.5311 22.8 28.3858 22.446 29.0159 21.8159C29.646 21.1858 30 20.3311 30 19.44V6.96001C30 6.06888 29.646 5.21426 29.0159 4.58413C28.3858 3.95401 27.5311 3.60001 26.64 3.60001Z" fill="white" stroke="#4F4F4F" stroke-linecap="round" stroke-linejoin="round"/>
<path d="M15.6 16.8C18.251 16.8 20.4 14.651 20.4 12C20.4 9.34905 18.251 7.20001 15.6 7.20001C12.9491 7.20001 10.8 9.34905 10.8 12C10.8 14.651 12.9491 16.8 15.6 16.8Z" fill="white" stroke="#4F4F4F" stroke-linecap="round" stroke-linejoin="round"/>
</svg>
