<svg width="19" height="17" viewBox="0 0 19 17" fill="none" xmlns="http://www.w3.org/2000/svg">
<path d="M18.3032 7.63066L10.6925 1.11133C10.6282 1.05314 10.5478 1.01572 10.4618 1.00397C10.3759 0.992221 10.2884 1.00669 10.2108 1.04548C10.1332 1.08427 10.0692 1.14558 10.027 1.22138C9.98485 1.29719 9.96655 1.38395 9.97451 1.47033L10.2617 5.20387C7.27488 5.73518 2.69412 11.3786 1.07146 13.4894C1.0278 13.541 1.00271 13.6057 1.00021 13.6732C0.997707 13.7407 1.01794 13.8071 1.05768 13.8617C1.09741 13.9164 1.15433 13.9561 1.21932 13.9745C1.28431 13.9929 1.35361 13.989 1.4161 13.9633C3.51262 13.2884 8.50982 11.7806 10.793 12.0248L11.0659 15.6003C11.0721 15.686 11.1038 15.7679 11.1569 15.8355C11.21 15.903 11.2821 15.9532 11.3639 15.9794C11.4458 16.0057 11.5336 16.0068 11.6161 15.9828C11.6986 15.9587 11.772 15.9106 11.8269 15.8444L18.3463 8.24813C18.3848 8.20518 18.4144 8.1549 18.4332 8.1003C18.4519 8.0457 18.4595 7.98787 18.4555 7.93027C18.4515 7.87267 18.4359 7.81647 18.4098 7.765C18.3836 7.71353 18.3473 7.66785 18.3032 7.63066Z" fill="white" stroke="black" stroke-linecap="round" stroke-linejoin="round"/>
</svg>
